<?xml version="1.0" ?><svg id="Layer_1" style="enable-background:new 0 0 52 52;" version="1.1" viewBox="0 0 52 52" xml:space="preserve" xmlns="http://www.w3.org/2000/svg" xmlns:xlink="http://www.w3.org/1999/xlink"><style type="text/css">
	.st0{fill:#231F20;}
</style><g><g><path class="st0" d="M14.2986994,27.7347355c7.0398932-0.0085373,14.7998476-0.9159698,21.7667618,0.1167259    c7.788868,1.1545334,5.3329239,16.1348934,5.1895981,22.0418987c0.375-0.375,0.75-0.75,1.125-1.125    c-8.1926689,1.0825768-17.0863285,0.1398926-25.348341,0.100338c-1.7178335-0.0082245-5.0227394,0.7613945-6.1797943-0.9079018    c-0.557354-0.8041-0.0256481-4.2488708-0.0284586-5.0906715c-0.0137367-4.1148834-1.2702122-12.8587646,3.2511435-14.7231674    c1.3200283-0.5443192,0.7416439-2.7220936-0.5981388-2.1696281c-3.3603773,1.3856678-4.4326267,4.0702934-4.7949409,7.531868    c-0.3874846,3.7020493-0.1168671,7.5745277-0.097703,11.293766c0.007123,1.382225-0.6221533,4.2803154,0.1994181,5.4806252    c0.4306726,0.6292076,0.7724228,0.5073471,1.399828,0.8023224c2.3913221,1.1242752,8.0121422,0.0383568,10.7621593,0.0515213    c7.0212097,0.0336151,14.474062,0.800724,21.4348278-0.119072c0.6154671-0.0813293,1.1086197-0.4499168,1.125-1.125    c0.1347733-5.554512,0.3076477-11.1499138-0.2566147-16.6880417c-0.2625885-2.5772839-0.587162-4.7754078-2.8409348-6.3013306    c-2.5258141-1.7101078-5.8624802-1.4401951-8.7488995-1.4403038c-5.7866249-0.0002213-11.573288,0.0140343-17.3599091,0.0210514    C12.8510103,25.4864922,12.8484602,27.7364941,14.2986994,27.7347355L14.2986994,27.7347355z"/></g><g><path class="st0" d="M32.2350502,8.0068521c0.8050423,3.3933001-1.0266342,7.7706194-3.1581154,10.664319    c-4.0889683,5.5511818-9.3698826-0.5553436-10.4926834-5.0137606C17.3733177,8.8490458,18.279089,3.3591883,24.2672386,2.7220469    c3.0994682-0.3297846,8.6423264,2.5698223,8.6971016,6.3032522c0.021225,1.4465408,2.271286,1.4507723,2.25,0    c-0.0454674-3.0989857-1.8966446-4.3000879-4.1177158-6.2570872c-2.4312477-2.1421878-4.1156254-2.6752346-7.4898529-2.2076068    c-6.7197952,0.9312826-8.4727888,6.265759-7.4698277,12.2318153c0.8134727,4.8389063,4.7644444,12.2322893,10.8999462,10.2830648    c2.9035358-0.9224434,4.3352871-3.7577057,5.5839214-6.2799778c1.714283-3.4628954,2.7222786-5.4313335,1.7838669-9.3867941    C34.0705719,6.0004377,31.9004898,6.5966539,32.2350502,8.0068521L32.2350502,8.0068521z"/></g><g><path class="st0" d="M32.9735069,11.6212368c-2.6887436,0.4718142-3.496172-1.6097393-4.6890354-3.1997194    c-0.2350445-0.3132925-0.2698002-0.6436553-0.6213398-0.9102325c-0.993515-0.7533965-2.6366043-0.4669471-3.7829533-0.4109302    c-2.7285976,0.1333356-5.9658108-0.0977292-7.0288887,2.8665338c-0.4896774,1.3654089,1.6836147,1.9533272,2.1696281,0.5981388    c0.5099468-1.4219236,4.7370834-1.3562431,5.9654617-1.2585249c1.6839027,0.133955,1.5729465,1.164279,2.5848141,2.2967186    c1.5584106,1.7441092,3.7284622,2.5863266,6.0004539,2.187644C34.995266,13.5410509,34.3918839,11.372344,32.9735069,11.6212368    L32.9735069,11.6212368z"/></g></g></svg>