<svg width="20" height="20" viewBox="0 0 20 20" fill="none" xmlns="http://www.w3.org/2000/svg">
<g id="star-fill">
<path id="Icon" fill-rule="evenodd" clip-rule="evenodd" d="M7.02823 6.67918L2.39785 7.47503L2.33167 7.48887C1.68324 7.64924 1.43914 8.45843 1.9166 8.9465L5.19171 12.2945L4.52295 16.9157L4.5159 16.9805C4.46744 17.6438 5.16746 18.1258 5.78286 17.8252L10 15.7648L14.2172 17.8252L14.277 17.8518C14.897 18.1026 15.5747 17.5901 15.4771 16.9157L14.8079 12.2945L18.0834 8.9465L18.1288 8.89666C18.5585 8.38826 18.2772 7.59107 17.6022 7.47503L12.9714 6.67918L10.7787 2.54976C10.4484 1.92775 9.55168 1.92775 9.22135 2.54976L7.02823 6.67918Z" fill="#333333"/>
</g>
</svg>
