<svg width="36" height="36" viewBox="0 0 36 36" fill="none" xmlns="http://www.w3.org/2000/svg">
<path d="M25.7648 12.9952C28.0798 14.656 30.9159 15.6331 33.9789 15.6331V9.71791C33.3992 9.71804 32.821 9.65738 32.2539 9.53679V14.1929C29.1911 14.1929 26.3554 13.2157 24.0398 11.5551V23.6263C24.0398 29.6649 19.1619 34.5599 13.1451 34.5599C10.9001 34.5599 8.81346 33.8787 7.08008 32.7106C9.05845 34.7406 11.8174 36 14.8698 36C20.8869 36 25.7651 31.105 25.7651 25.0662V12.9952H25.7648V12.9952ZM27.8928 7.02749C26.7097 5.73034 25.9329 4.05401 25.7648 2.20076V1.43994H24.1301C24.5416 3.79542 25.9451 5.8078 27.8928 7.02749ZM10.8857 28.0767C10.2247 27.2069 9.86749 26.1429 9.86909 25.0489C9.86909 22.287 12.1002 20.0477 14.8528 20.0477C15.3658 20.0476 15.8757 20.1264 16.3646 20.2821V14.2347C15.7932 14.1561 15.2166 14.1227 14.6403 14.135V18.842C14.151 18.6863 13.6409 18.6072 13.1278 18.6077C10.3752 18.6077 8.1442 20.8468 8.1442 23.609C8.1442 25.5621 9.25938 27.253 10.8857 28.0767Z" fill="#FF004F"/>
<path d="M24.0397 11.555C26.3553 13.2156 29.191 14.1928 32.2538 14.1928V9.53667C30.5441 9.17121 29.0306 8.2746 27.8927 7.02749C25.9448 5.80768 24.5415 3.7953 24.13 1.43994H19.8361V25.0659C19.8264 27.8202 17.5991 30.0504 14.8524 30.0504C13.2339 30.0504 11.7959 29.2761 10.8852 28.0767C9.25903 27.253 8.14385 25.562 8.14385 23.6091C8.14385 20.8472 10.3748 18.6078 13.1274 18.6078C13.6548 18.6078 14.1631 18.6902 14.6399 18.8421V14.1351C8.72882 14.2576 3.97485 19.1048 3.97485 25.066C3.97485 28.0419 5.1587 30.7396 7.0801 32.7107C8.81347 33.8787 10.9001 34.56 13.1451 34.56C19.1621 34.56 24.0398 29.6648 24.0398 23.6263V11.555H24.0397Z" fill="black"/>
<path d="M32.2538 9.5367V8.27773C30.7121 8.28007 29.2007 7.84678 27.8927 7.0274C29.0506 8.29959 30.5753 9.1768 32.2538 9.5367ZM24.13 1.43998C24.0908 1.21487 24.0606 0.988276 24.0397 0.760821V0H18.111V23.6262C18.1016 26.3801 15.8744 28.6103 13.1275 28.6103C12.321 28.6103 11.5596 28.4182 10.8853 28.0769C11.796 29.2762 13.2339 30.0503 14.8525 30.0503C17.5989 30.0503 19.8266 27.8204 19.8362 25.0661V1.43998H24.13ZM14.6402 14.1351V12.7948C14.1448 12.7269 13.6454 12.6928 13.1453 12.693C7.12787 12.6929 2.25 17.5881 2.25 23.6262C2.25 27.4118 4.16709 30.748 7.08025 32.7105C5.15886 30.7395 3.97501 28.0416 3.97501 25.0659C3.97501 19.1048 8.72885 14.2577 14.6402 14.1351Z" fill="#00F2EA"/>
</svg>
